<svg version="1.1" id="Layer_1" xmlns="http://www.w3.org/2000/svg" xmlns:xlink="http://www.w3.org/1999/xlink" x="0px" y="0px" width="58px" height="58px" viewBox="0 0 600 600" enable-background="new 0 0 600 600" xml:space="preserve"><path id="color_x5F_1" fill="#52BC85" d="M545.152,120.151c-24.686-18.113-57.208-28.08-91.576-28.08    c-29.77,0-58.132,7.507-81.237,21.268l-90.725-23.041c0.073-1.336,0.247-2.661,0.247-4.005c0-24.156-12.298-46.464-34.634-62.85    C226.609,8.321,199.49,0,170.864,0c-28.618,0-55.736,8.321-76.353,23.443c-22.345,16.386-34.643,38.694-34.643,62.85    c0,24.138,12.298,46.466,34.643,62.839c20.617,15.122,47.735,23.453,76.353,23.453c28.626,0,55.745-8.331,76.362-23.453    c9.499-6.967,17.051-15.048,22.748-23.844l68.545,17.948c-11.356,15.259-17.472,32.641-17.472,50.916    c0,26.626,12.956,51.341,36.362,70.293l-59.896,50.679c-0.412-0.309-0.75-0.638-1.161-0.942    c-31.142-22.838-72.248-35.41-115.751-35.41c-43.503,0-84.6,12.572-115.742,35.41C32,338.275,13.906,370.852,13.906,405.904    c0,35.065,18.094,67.631,50.953,91.733c31.142,22.838,70.859,35.41,114.361,35.41c6.327,0,17.399-0.347,17.399-0.867v61.403    c0,5.881,8.65,8.65,12.572,4.27l104.34-115.814l0.256,0.046c21.422-21.788,33.336-48.157,33.336-76.181    c0-23.422-8.156-45.668-23.323-65.089l66.204-57.015c19.273,8.063,40.997,12.436,63.543,12.436c34.369,0,66.909-9.968,91.595-28.081    c26.405-19.353,40.951-45.64,40.951-74.004C586.094,165.791,571.557,139.504,545.152,120.151z M170.864,129.32    c-34.955,0-64.476-19.703-64.476-43.028c0-23.332,29.522-43.036,64.476-43.036c34.953,0,64.485,19.703,64.485,43.036    C235.349,109.617,205.817,129.32,170.864,129.32z M100.747,458.66c-19.686-14.435-30.529-33.171-30.529-52.756    c0-19.575,10.844-38.318,30.529-52.746c21.138-15.506,49.5-24.045,79.855-24.045c30.365,0,58.717,8.539,79.864,24.045    c19.685,14.427,30.529,33.171,30.529,52.746c0,19.585-10.844,38.321-30.529,52.756c-21.147,15.498-49.499,24.037-79.864,24.037    C150.247,482.698,121.885,474.158,100.747,458.66z M510.353,230.231c-14.985,10.981-35.145,17.035-56.777,17.035    s-41.803-6.053-56.788-17.035c-13.586-9.975-21.075-22.774-21.075-36.079c0-13.303,7.489-26.101,21.075-36.077    c14.985-10.982,35.155-17.035,56.788-17.035s41.793,6.053,56.777,17.035c13.587,9.975,21.075,22.774,21.075,36.077    C531.428,207.457,523.94,220.256,510.353,230.231z"></path></svg>